# xmcd
# 
# Track frame offsets:
#   150
#   27415
#   50281
#   71137
#   91991
#   118578
#   151818
#   157144
#   159543
#   182149
# 
# Disc length: 2500 seconds
# 
# Revision: 1
# Processed by: cddbd v1.5.1PL0 Copyright (c) Steve Scherf et al.
# Submitted via: VOLTOCDX V1.0.24 
# 
DISCID=8009c20a
DTITLE=My Artist - My Title
DYEAR=2005
DGENRE=Description of the extended genre
TTITLE0=Brokenhearted
TTITLE1=Without You
TTITLE2=Keep Your Head
TTITLE3=Why
TTITLE4=First Love
TTITLE5=The Appeal
TTITLE6=Brokenhearted (Reprise)
TTITLE7=Interlude
TTITLE8=Sunshine
TTITLE9=Outro
EXTD=Extended CD description
EXTT0=
EXTT1=
EXTT2=
EXTT3=
EXTT4=
EXTT5=
EXTT6=
EXTT7=
EXTT8=
EXTT9=
PLAYORDER=
